<?xml version="1.0" encoding="UTF-8"?>
<!DOCTYPE svg PUBLIC "-//W3C//DTD SVG 1.1//EN" "http://www.w3.org/Graphics/SVG/1.1/DTD/svg11.dtd">
<!-- Creator: CorelDRAW -->
<svg xmlns="http://www.w3.org/2000/svg" xml:space="preserve" width="280px" height="110px" style="shape-rendering:geometricPrecision; text-rendering:geometricPrecision; image-rendering:optimizeQuality; fill-rule:evenodd; clip-rule:evenodd"
viewBox="0 0 280 109.999"
 xmlns:xlink="http://www.w3.org/1999/xlink">
 <defs>
  <style type="text/css">
   <![CDATA[
    .fil1 {fill:#0A3F89;fill-rule:nonzero}
    .fil2 {fill:#1F1A17;fill-rule:nonzero}
    .fil0 {fill:#DA251D;fill-rule:nonzero}
   ]]>
  </style>
 </defs>
 <g id="Camada_x0020_1">
  <metadata id="CorelCorpID_0Corel-Layer"/>
  <polygon class="fil0" points="258.093,52.8001 258.093,11.0433 263.615,11.0433 263.615,52.8001 "/>
  <polygon class="fil0" points="232.144,52.8001 232.144,15.9721 218.388,15.9721 218.388,11.0433 251.482,11.0433 251.482,15.9721 237.667,15.9721 237.667,52.8001 "/>
  <path class="fil1" d="M165.984 64.447l-0.574017 -4.81182c1.12796,0.301182 2.10001,0.457088 2.93623,0.457088 1.1374,0 2.05158,-0.194882 2.7319,-0.574017 0.690947,-0.379135 1.24489,-0.904727 1.68189,-1.59449 0.33071,-0.505513 0.846853,-1.77875 1.56615,-3.81143 0.0968507,-0.291733 0.252757,-0.699215 0.457088,-1.25433l-11.4733 -30.3036 5.52285 0 6.30002 17.5099c0.806695,2.22638 1.54607,4.55907 2.18741,7.00986 0.592915,-2.35276 1.29331,-4.64765 2.10945,-6.89293l6.46537 -17.6268 5.12364 0 -11.5016 30.7607c-1.23426,3.32481 -2.19686,5.61025 -2.87717,6.86459 -0.914176,1.69134 -1.95473,2.9256 -3.13111,3.7134 -1.18583,0.787797 -2.58544,1.18583 -4.21891,1.18583 -0.992129,0 -2.09056,-0.21378 -3.30591,-0.631892z"/>
  <path class="fil1" d="M161.201 48.2116l0.739372 4.53072c-1.43977,0.301182 -2.7319,0.455907 -3.8693,0.455907 -1.86733,0 -3.30591,-0.290552 -4.33702,-0.884648 -1.02048,-0.582285 -1.73977,-1.36063 -2.15788,-2.32323 -0.418111,-0.953152 -0.631892,-2.97521 -0.631892,-6.04726l0 -17.4024 -3.763 0 0 -3.98623 3.763 0 0 -7.49648 5.10356 -3.07206 0 10.5685 5.15316 0 0 3.98623 -5.15316 0 0 17.6847c0,1.46811 0.0885829,2.40119 0.263387,2.8193 0.184252,0.418111 0.475986,0.748821 0.884648,1.00158 0.407481,0.243308 0.990948,0.369686 1.74922,0.369686 0.574017,0 1.32284,-0.0685041 2.25591,-0.204331z"/>
  <polygon class="fil1" points="137.07,52.8001 137.07,22.5544 142.203,22.5544 142.203,52.8001 "/>
  <polygon class="fil1" points="137.07,16.9441 137.07,11.0433 142.203,11.0433 142.203,16.9441 "/>
  <path class="fil1" d="M116.283 52.8001l-11.5111 -30.2458 5.41537 0 6.49372 18.1123c0.700396,1.95473 1.34174,3.98623 1.93465,6.09569 0.457088,-1.59449 1.08898,-3.50906 1.9063,-5.75553l6.72758 -18.4524 5.26891 0 -11.452 30.2458 -4.78348 0z"/>
  <polygon class="fil1" points="94.942,52.8001 94.942,22.5544 100.075,22.5544 100.075,52.8001 "/>
  <polygon class="fil1" points="94.942,16.9441 94.942,11.0433 100.075,11.0433 100.075,16.9441 "/>
  <path class="fil1" d="M89.9058 48.2116l0.739372 4.53072c-1.43977,0.301182 -2.7319,0.455907 -3.8693,0.455907 -1.86733,0 -3.30591,-0.290552 -4.33702,-0.884648 -1.02048,-0.582285 -1.73977,-1.36063 -2.15788,-2.32323 -0.418111,-0.953152 -0.631892,-2.97521 -0.631892,-6.04726l0 -17.4024 -3.763 0 0 -3.98623 3.763 0 0 -7.49648 5.10356 -3.07206 0 10.5685 5.15316 0 0 3.98623 -5.15316 0 0 17.6847c0,1.46811 0.0885829,2.40119 0.263387,2.8193 0.184252,0.418111 0.475986,0.748821 0.884648,1.00158 0.407481,0.243308 0.990948,0.369686 1.74922,0.369686 0.574017,0 1.32284,-0.0685041 2.25591,-0.204331z"/>
  <path class="fil1" d="M69.2848 41.7167l5.03623 0.661419c-0.54449,3.47009 -1.95473,6.19254 -4.22954,8.15672 -2.26536,1.96418 -5.05631,2.94568 -8.36105,2.94568 -4.13269,0 -7.46695,-1.35118 -9.97562,-4.05355 -2.51812,-2.70355 -3.7819,-6.5823 -3.7819,-11.6374 0,-3.26694 0.54449,-6.12521 1.62402,-8.57601 1.08898,-2.44961 2.7319,-4.28741 4.94883,-5.51222 2.20631,-1.22481 4.61812,-1.8378 7.21301,-1.8378 3.28702,0 5.97994,0.836223 8.05987,2.49922 2.09056,1.66182 3.43229,4.01458 4.02521,7.07719l-4.98781 0.7689c-0.475986,-2.03268 -1.31221,-3.55867 -2.51812,-4.58978 -1.20473,-1.02048 -2.66339,-1.53544 -4.37482,-1.53544 -2.58544,0 -4.68545,0.923625 -6.30002,2.78032 -1.61339,1.84725 -2.42009,4.77403 -2.42009,8.77916 0,4.06418 0.777168,7.01931 2.34213,8.86656 1.55552,1.8378 3.5882,2.76143 6.09687,2.76143 2.0126,0 3.68387,-0.622443 5.03623,-1.8567 1.35118,-1.23544 2.20631,-3.13111 2.56654,-5.69765z"/>
  <path class="fil1" d="M6.70277 52.8001l16.0418 -41.7568 5.95041 0 17.0918 41.7568 -6.30002 0 -4.87088 -12.6485 -17.4615 0 -4.57915 12.6485 -5.87246 0zm12.0461 -17.1497l14.165 0 -4.36537 -11.5607c-1.32166,-3.50906 -2.31379,-6.39687 -2.95513,-8.66223 -0.535041,2.68347 -1.28386,5.33742 -2.25591,7.98191l-4.5886 12.241z"/>
  <path class="fil2" d="M7.16341 87.6735l0 -23.8607 8.21695 0c1.85552,0 3.27166,0.116929 4.24962,0.343702 1.36654,0.311812 2.53347,0.883467 3.49962,1.70552 1.25552,1.06772 2.2004,2.42245 2.82284,4.07836 0.627167,1.65591 0.938979,3.5445 0.938979,5.67167 0,1.81182 -0.211418,3.41694 -0.638978,4.81655 -0.422836,1.40079 -0.96142,2.56182 -1.62874,3.47836 -0.660238,0.916538 -1.38307,1.63819 -2.17205,2.16142 -0.783073,0.526773 -1.73268,0.927168 -2.8441,1.2 -1.11614,0.271654 -2.3941,0.405119 -3.83387,0.405119l-8.61026 0zm3.15473 -2.81694l5.09529 0c1.57205,0 2.81103,-0.144095 3.70513,-0.43819 0.894097,-0.295276 1.60512,-0.706301 2.13898,-1.23898 0.750002,-0.745278 1.33347,-1.7563 1.7504,-3.01654 0.415749,-1.26733 0.627167,-2.7945 0.627167,-4.60041 0,-2.4945 -0.411025,-4.41143 -1.22717,-5.74962 -0.82205,-1.34528 -1.81654,-2.23938 -2.98938,-2.69528 -0.844491,-0.327166 -2.21103,-0.487797 -4.08308,-0.487797l-5.01734 0 0 18.2268z"/>
  <path id="1" class="fil2" d="M42.6911 82.1069l3.02717 0.372048c-0.477167,1.77284 -1.36063,3.1441 -2.64922,4.12206 -1.29449,0.97205 -2.9445,1.46103 -4.95001,1.46103 -2.52875,0 -4.53426,-0.777168 -6.01183,-2.33268 -1.48347,-1.55552 -2.22166,-3.73938 -2.22166,-6.55041 0,-2.91143 0.750002,-5.16616 2.2441,-6.77246 1.5,-1.60512 3.43938,-2.41064 5.82758,-2.41064 2.31142,0 4.20001,0.788979 5.66104,2.36103 1.46693,1.57205 2.2004,3.78899 2.2004,6.639 0,0.177166 -0.00590553,0.43819 -0.0165355,0.783073l-12.8894 0c0.1063,1.9004 0.644884,3.35552 1.61103,4.36064 0.967326,1.01221 2.16733,1.51772 3.61182,1.51772 1.07244,0 1.98898,-0.283465 2.74961,-0.850396 0.760632,-0.561025 1.36063,-1.46103 1.80591,-2.70001zm-9.61656 -4.7386l9.64963 0c-0.127559,-1.4504 -0.499608,-2.54528 -1.10551,-3.26694 -0.933073,-1.12796 -2.14489,-1.69489 -3.62836,-1.69489 -1.3441,0 -2.47678,0.450001 -3.39332,1.35 -0.917719,0.900003 -1.42323,2.10591 -1.52245,3.61182z"/>
  <path id="12" class="fil2" d="M48.2293 82.512l2.89489 -0.454726c0.16063,1.16103 0.616537,2.04922 1.36063,2.67166 0.739372,0.616537 1.77756,0.928349 3.11694,0.928349 1.3441,0 2.34449,-0.278741 2.9941,-0.823231 0.650789,-0.549214 0.977956,-1.1941 0.977956,-1.92756 0,-0.666144 -0.289371,-1.18347 -0.866932,-1.56615 -0.399214,-0.261024 -1.39961,-0.589372 -2.9941,-0.988585 -2.14489,-0.54449 -3.63899,-1.01221 -4.46694,-1.41142 -0.827955,-0.394489 -1.46103,-0.944885 -1.88859,-1.6441 -0.42756,-0.700396 -0.644884,-1.47284 -0.644884,-2.31733 0,-0.772443 0.178347,-1.48347 0.53386,-2.13898 0.349607,-0.661419 0.83268,-1.20473 1.43859,-1.63819 0.455907,-0.334253 1.07835,-0.622443 1.86142,-0.856302 0.788979,-0.232678 1.63347,-0.349607 2.53347,-0.349607 1.35473,0 2.5441,0.199607 3.57166,0.589372 1.02756,0.388584 1.78347,0.916538 2.27245,1.58268 0.488978,0.672049 0.82205,1.56142 1.00512,2.67757l-2.86064 0.394489c-0.133465,-0.888191 -0.511419,-1.58268 -1.13386,-2.08347 -0.621262,-0.499608 -1.50473,-0.750002 -2.64331,-0.750002 -1.34528,0 -2.30552,0.222048 -2.87835,0.667325 -0.577561,0.444096 -0.866932,0.966144 -0.866932,1.56024 0,0.383859 0.122835,0.722837 0.361418,1.02874 0.238583,0.316536 0.610632,0.571655 1.12205,0.783073 0.294095,0.105118 1.1563,0.355513 2.58898,0.744097 2.07284,0.556301 3.51615,1.0063 4.33348,1.36181 0.82205,0.349607 1.46693,0.86575 1.93347,1.5378 0.466537,0.67323 0.699215,1.50591 0.699215,2.50631 0,0.977956 -0.28819,1.89449 -0.855121,2.76143 -0.571655,0.861026 -1.39489,1.52717 -2.46615,1.99961 -1.07244,0.472442 -2.28898,0.70512 -3.64489,0.70512 -2.25001,0 -3.96143,-0.466537 -5.13899,-1.39961 -1.17756,-0.933073 -1.92756,-2.31615 -2.25001,-4.15041z"/>
  <path id="123" class="fil2" d="M77.8963 82.1069l3.02717 0.372048c-0.477167,1.77284 -1.36063,3.1441 -2.64922,4.12206 -1.29449,0.97205 -2.9445,1.46103 -4.95001,1.46103 -2.52875,0 -4.53426,-0.777168 -6.01183,-2.33268 -1.48347,-1.55552 -2.22166,-3.73938 -2.22166,-6.55041 0,-2.91143 0.750002,-5.16616 2.2441,-6.77246 1.5,-1.60512 3.43938,-2.41064 5.82758,-2.41064 2.31142,0 4.20001,0.788979 5.66104,2.36103 1.46693,1.57205 2.2004,3.78899 2.2004,6.639 0,0.177166 -0.00590553,0.43819 -0.0165355,0.783073l-12.8894 0c0.1063,1.9004 0.644884,3.35552 1.61103,4.36064 0.967326,1.01221 2.16733,1.51772 3.61182,1.51772 1.07244,0 1.98898,-0.283465 2.74961,-0.850396 0.760632,-0.561025 1.36063,-1.46103 1.80591,-2.70001zm-9.61656 -4.7386l9.64963 0c-0.127559,-1.4504 -0.499608,-2.54528 -1.10551,-3.26694 -0.933073,-1.12796 -2.14489,-1.69489 -3.62836,-1.69489 -1.3441,0 -2.47678,0.450001 -3.39332,1.35 -0.917719,0.900003 -1.42323,2.10591 -1.52245,3.61182z"/>
  <path id="1234" class="fil2" d="M84.6073 87.6735l0 -17.2831 2.63268 0 0 2.45552c1.27205,-1.9004 3.10631,-2.85001 5.50041,-2.85001 1.0441,0 1.99961,0.188977 2.87245,0.561025 0.877562,0.377954 1.52717,0.866932 1.96064,1.47756 0.439371,0.605907 0.739372,1.32756 0.916538,2.16142 0.105118,0.54449 0.161811,1.4941 0.161811,2.85001l0 10.6276 -2.93387 0 0 -10.5166c0,-1.18937 -0.111024,-2.08347 -0.338977,-2.67757 -0.227953,-0.589372 -0.633073,-1.06181 -1.21063,-1.41142 -0.583466,-0.355513 -1.26142,-0.532679 -2.04449,-0.532679 -1.25079,0 -2.32205,0.399214 -3.23387,1.18819 -0.905908,0.794884 -1.35591,2.29489 -1.35591,4.51064l0 9.4394 -2.92678 0z"/>
  <path id="12345" class="fil2" d="M107.946 87.6735l-6.57876 -17.2831 3.0945 0 3.71103 10.35c0.400395,1.11614 0.767719,2.27717 1.1067,3.48308 0.261024,-0.910632 0.621262,-2.00552 1.0878,-3.28938l3.8445 -10.5437 3.01182 0 -6.54451 17.2831 -2.73308 0z"/>
  <path id="123456" class="fil2" d="M118.718 79.029c0,-3.19962 0.889373,-5.57246 2.67166,-7.11144 1.48347,-1.27678 3.29528,-1.92166 5.43427,-1.92166 2.37757,0 4.32167,0.777168 5.82758,2.33859 1.51063,1.55552 2.26064,3.70631 2.26064,6.45002 0,2.22757 -0.333072,3.97796 -0.999215,5.25001 -0.667325,1.27796 -1.63937,2.26654 -2.91143,2.97284 -1.27796,0.70512 -2.66694,1.05473 -4.17757,1.05473 -2.41654,0 -4.37245,-0.772443 -5.86655,-2.32796 -1.49528,-1.54961 -2.23938,-3.78308 -2.23938,-6.70514zm3.01064 0c0,2.21694 0.484253,3.87285 1.4504,4.97245 0.967326,1.10551 2.18386,1.65591 3.64489,1.65591 1.45512,0 2.66576,-0.556301 3.63308,-1.66182 0.96142,-1.10551 1.44449,-2.7945 1.44449,-5.06104 0,-2.13898 -0.483072,-3.76064 -1.4563,-4.86143 -0.97205,-1.09961 -2.17678,-1.65 -3.62127,-1.65 -1.46103,0 -2.67757,0.550395 -3.64489,1.64528 -0.966144,1.0937 -1.4504,2.74961 -1.4504,4.96064z"/>
  <polygon id="1234567" class="fil2" points="138.284,87.6735 138.284,63.8128 141.212,63.8128 141.212,87.6735 "/>
  <path id="12345678" class="fil2" d="M150.557 87.6735l-6.57876 -17.2831 3.0945 0 3.71103 10.35c0.400395,1.11614 0.767719,2.27717 1.1067,3.48308 0.261024,-0.910632 0.621262,-2.00552 1.0878,-3.28938l3.8445 -10.5437 3.01182 0 -6.54451 17.2831 -2.73308 0z"/>
  <path id="123456789" class="fil2" d="M174.251 82.1069l3.02717 0.372048c-0.477167,1.77284 -1.36063,3.1441 -2.64922,4.12206 -1.29449,0.97205 -2.9445,1.46103 -4.95001,1.46103 -2.52875,0 -4.53426,-0.777168 -6.01183,-2.33268 -1.48347,-1.55552 -2.22166,-3.73938 -2.22166,-6.55041 0,-2.91143 0.750002,-5.16616 2.2441,-6.77246 1.5,-1.60512 3.43938,-2.41064 5.82758,-2.41064 2.31142,0 4.20001,0.788979 5.66104,2.36103 1.46693,1.57205 2.2004,3.78899 2.2004,6.639 0,0.177166 -0.00590553,0.43819 -0.0165355,0.783073l-12.8894 0c0.1063,1.9004 0.644884,3.35552 1.61103,4.36064 0.967326,1.01221 2.16733,1.51772 3.61182,1.51772 1.07244,0 1.98898,-0.283465 2.74961,-0.850396 0.760632,-0.561025 1.36063,-1.46103 1.80591,-2.70001zm-9.61656 -4.7386l9.64963 0c-0.127559,-1.4504 -0.499608,-2.54528 -1.10551,-3.26694 -0.933073,-1.12796 -2.14489,-1.69489 -3.62836,-1.69489 -1.3441,0 -2.47678,0.450001 -3.39332,1.35 -0.917719,0.900003 -1.42323,2.10591 -1.52245,3.61182z"/>
  <path id="12345678910" class="fil2" d="M180.928 87.6735l0 -17.2831 2.63387 0 0 2.61615c0.672049,-1.22126 1.29449,-2.03268 1.86615,-2.42127 0.566931,-0.389765 1.19528,-0.589372 1.87796,-0.589372 0.988585,0 1.98898,0.316536 3.01182,0.944885l-1.01103 2.72127c-0.712207,-0.42756 -1.42796,-0.638978 -2.14489,-0.638978 -0.644884,0 -1.21654,0.194882 -1.72796,0.578742 -0.511419,0.388584 -0.871656,0.921262 -1.08898,1.60512 -0.327166,1.03937 -0.488978,2.17796 -0.488978,3.41694l0 9.04963 -2.92796 0z"/>
  <path id="1234567891011" class="fil2" d="M205.862 87.6735l-6.33427 -23.8607 3.23977 0 3.63308 15.639c0.388584,1.63819 0.721656,3.26576 1.00512,4.88269 0.611813,-2.55001 0.967326,-4.01694 1.07835,-4.41143l4.53899 -16.1103 3.81025 0 3.41694 12.078c0.855121,2.9941 1.47284,5.81104 1.85552,8.44372 0.300001,-1.50591 0.700396,-3.23859 1.18937,-5.1886l3.7382 -15.3331 3.17836 0 -6.54451 23.8607 -3.04489 0 -5.02797 -18.1772c-0.421655,-1.52245 -0.672049,-2.45552 -0.750002,-2.8004 -0.249213,1.09488 -0.483072,2.02796 -0.699215,2.8004l-5.06104 18.1772 -3.22206 0z"/>
  <path id="123456789101112" class="fil2" d="M244.012 82.1069l3.02717 0.372048c-0.477167,1.77284 -1.36063,3.1441 -2.64922,4.12206 -1.29449,0.97205 -2.9445,1.46103 -4.95001,1.46103 -2.52875,0 -4.53426,-0.777168 -6.01183,-2.33268 -1.48347,-1.55552 -2.22166,-3.73938 -2.22166,-6.55041 0,-2.91143 0.750002,-5.16616 2.2441,-6.77246 1.5,-1.60512 3.43938,-2.41064 5.82758,-2.41064 2.31142,0 4.20001,0.788979 5.66104,2.36103 1.46693,1.57205 2.2004,3.78899 2.2004,6.639 0,0.177166 -0.00590553,0.43819 -0.0165355,0.783073l-12.8894 0c0.1063,1.9004 0.644884,3.35552 1.61103,4.36064 0.967326,1.01221 2.16733,1.51772 3.61182,1.51772 1.07244,0 1.98898,-0.283465 2.74961,-0.850396 0.760632,-0.561025 1.36063,-1.46103 1.80591,-2.70001zm-9.61656 -4.7386l9.64963 0c-0.127559,-1.4504 -0.499608,-2.54528 -1.10551,-3.26694 -0.933073,-1.12796 -2.14489,-1.69489 -3.62836,-1.69489 -1.3441,0 -2.47678,0.450001 -3.39332,1.35 -0.917719,0.900003 -1.42323,2.10591 -1.52245,3.61182z"/>
  <path id="12345678910111213" class="fil2" d="M253.423 87.6735l-2.71654 0 0 -23.8607 2.92678 0 0 8.51105c1.23898,-1.55079 2.81694,-2.32796 4.73387,-2.32796 1.06654,0 2.07166,0.216142 3.02245,0.644884 0.949609,0.42756 1.72796,1.03229 2.34449,1.80473 0.610632,0.778349 1.0937,1.71142 1.43859,2.81103 0.349607,1.09488 0.522049,2.26654 0.522049,3.51143 0,2.96694 -0.733467,5.25592 -2.2004,6.87167 -1.46103,1.61693 -3.22206,2.42245 -5.27127,2.42245 -2.03977,0 -3.63899,-0.849215 -4.80001,-2.55473l0 2.16615zm-0.0342521 -8.77207c0,2.07166 0.283465,3.56694 0.844491,4.4882 0.922444,1.51182 2.17323,2.26772 3.74529,2.26772 1.28268,0 2.3882,-0.556301 3.32127,-1.67245 0.934255,-1.11142 1.40079,-2.76733 1.40079,-4.97245 0,-2.25591 -0.450001,-3.92245 -1.34528,-4.9949 -0.894097,-1.07126 -1.97717,-1.61103 -3.24332,-1.61103 -1.28386,0 -2.38938,0.556301 -3.32245,1.66654 -0.933073,1.11142 -1.40079,2.72245 -1.40079,4.82836z"/>
 </g>
</svg>
