<?xml version="1.0" encoding="UTF-8"?>
<!DOCTYPE svg PUBLIC "-//W3C//DTD SVG 1.1//EN" "http://www.w3.org/Graphics/SVG/1.1/DTD/svg11.dtd">
<!-- Creator: CorelDRAW -->
<svg xmlns="http://www.w3.org/2000/svg" xml:space="preserve" width="270px" height="154px" style="shape-rendering:geometricPrecision; text-rendering:geometricPrecision; image-rendering:optimizeQuality; fill-rule:evenodd; clip-rule:evenodd"
viewBox="0 0 270 153.999"
 xmlns:xlink="http://www.w3.org/1999/xlink">
 <defs>
  <style type="text/css">
   <![CDATA[
    .fil0 {fill:none}
    .fil2 {fill:#1F1A17}
    .fil7 {fill:#4A4555}
    .fil1 {fill:#4A4745}
    .fil6 {fill:#E77817}
    .fil3 {fill:#1F1A17;fill-rule:nonzero}
    .fil5 {fill:#DA251D;fill-rule:nonzero}
    .fil4 {fill:#E77817;fill-rule:nonzero}
   ]]>
  </style>
 </defs>
 <g id="Camada_x0020_1">
  <metadata id="CorelCorpID_0Corel-Layer"/>
  <polygon class="fil0" points="1.9937,-0.140551 268.007,-0.140551 268.007,154.14 1.9937,154.14 "/>
  <g id="_146516352">
   <path id="_145699600" class="fil1" d="M90.6756 102.896c-19.1528,16.1846 -47.915,13.9051 -62.5724,-7.08071 -12.339,-18.8469 -6.94252,-44.3303 13.6937,-54.587 18.3378,-8.36102 40.3441,0.261024 45.5539,20.3575 3.84094,17.1472 -7.90984,34.4976 -26.1295,34.3276 -17.1437,-0.677953 -28.7339,-18.5197 -19.9087,-33.8268 1.45276,-2.44606 3.52087,-4.19291 5.07283,-6.4689 0.866929,-1.45276 -2.19213,-0.147638 -2.50157,-0.00472441 -12.4984,6.16654 -13.7882,23.211 -7.46811,34.2024 9.90118,16.428 31.4622,19.1315 46.8248,8.8063 21.3177,-15.098 20.785,-45.4098 2.33858,-62.5169 -20.7272,-18.5161 -52.0748,-13.9512 -69.0236,7.1126 -5.50984,6.98504 -8.43543,14.4165 -10.8295,22.839 -0.985039,3.33543 -0.296457,-2.46378 -0.218504,-2.99055 4.1622,-26.7142 29.9268,-45.4665 56.5701,-42.8244 12.7571,1.47874 24.1689,7.42205 32.615,17.1165 16.3654,19.5673 15.2008,48.2823 -4.01693,65.5382z"/>
   <polygon id="_145699816" class="fil2" points="58.1327,49.1244 65.9705,49.1244 65.9705,82.2484 58.1327,82.2484 "/>
   <path id="_145699720" class="fil1" d="M107.492 104.198l3.99449 0 1.41496 3.70039 4.77638 0 1.76575 -3.70039 1.98189 0 1.77165 3.70039 4.7752 0 1.40079 -3.70039 3.66496 0 0 3.70039 13.2945 0 0 -2.07756 -8.41181 0 0 -1.62283 11.0433 0 0 3.70039 8.41063 0c0.360236,0 1.08661,-0.0425197 2.18504,-0.125197 0.824409,-0.0625984 1.44213,-0.162992 1.84961,-0.298819 0.661417,-0.222047 1.17874,-0.520866 1.56024,-0.901181 0.377953,-0.380315 0.569291,-0.807874 0.569291,-1.28386 0,-0.412205 -0.137008,-0.777165 -0.406299,-1.09134l10.3665 0 0 3.70039 7.24016 0c0.865748,0 1.83543,-0.0838583 2.90433,-0.249213 0.78189,-0.121654 1.51181,-0.366142 2.19094,-0.731102 0.682677,-0.362598 1.21535,-0.814961 1.59685,-1.35591 0.256299,-0.357874 0.421654,-0.812598 0.506693,-1.36417l2.62087 0 0 3.70039 13.2945 0 0 -2.07756 -8.41063 0 0 -1.62283 17.1591 0c1.05472,0.148819 1.74094,0.307087 2.05984,0.472441 0.359055,0.187795 0.535039,0.400394 0.535039,0.638976 0,0.249213 -0.186614,0.468898 -0.561024,0.659055 -0.377953,0.190157 -0.914173,0.283465 -1.60866,0.283465 -0.93189,0 -1.65236,-0.183071 -2.15079,-0.555118 -0.309449,-0.230315 -0.51378,-0.563386 -0.612992,-1.00157l-4.63701 0.168898c0.135827,0.927165 0.719291,1.68898 1.75394,2.28898 1.03228,0.602362 2.89016,0.901181 5.57008,0.901181 1.52717,0 2.79449,-0.12874 3.79606,-0.383858 1.00512,-0.256299 1.78819,-0.633071 2.34567,-1.13031 0.558661,-0.494882 0.840945,-1.03701 0.840945,-1.62402 0,-0.251575 -0.0543307,-0.491339 -0.16063,-0.71811l2.80394 0 0 3.70039 4.88268 0 0 -3.70039 2.99173 0c0.141732,0.596457 0.437008,1.14449 0.876378,1.64291 0.647244,0.733465 1.56142,1.2874 2.74252,1.65591 1.17992,0.372047 2.70236,0.55748 4.57559,0.55748 1.5189,0 2.83346,-0.102756 3.94252,-0.309449 1.10787,-0.205512 2.38228,-0.596457 3.82205,-1.16575l0 -2.3811 2.92559 0 0 3.70039 4.5815 0 0 -3.70039 1.56614 0 4.34173 3.70039 4.59213 0 0 -3.70039 1.03937 0 0 14.1 -157.964 0 0 -14.1zm46.389 0l3.91063 0c0.138189,0.0330709 0.256299,0.0732283 0.354331,0.119291 0.341339,0.165354 0.510236,0.382677 0.510236,0.65315 0,0.292913 -0.172441,0.525591 -0.517323,0.699213 -0.341339,0.172441 -0.933071,0.258661 -1.77402,0.258661l-2.48386 0 0 -1.73031zm24.4902 0l4.66654 0c-0.0602362,0.307087 -0.152362,0.551575 -0.287008,0.732283 -0.245669,0.327165 -0.583465,0.55748 -1.01339,0.688583 -0.42874,0.131102 -1.15276,0.194882 -2.17323,0.194882l-1.19291 0 0 -1.61575zm56.9728 0l3.53976 0 0 0.377953 3.2563 0 0 0.864567c-0.635433,0.220866 -1.20472,0.376772 -1.69961,0.467717 -0.49252,0.092126 -1.01457,0.13937 -1.55669,0.13937 -1.14921,0 -2.04449,-0.21378 -2.68346,-0.638976 -0.425197,-0.279921 -0.712205,-0.682677 -0.856299,-1.21063z"/>
   <path id="_145699456" class="fil1" d="M174.384 64.1929l91.4906 0 0 16.6547 -91.4906 0c3.59173,-4.82362 3.66969,-11.8902 0,-16.6547z"/>
   <path id="_145699360" class="fil3" d="M59.7177 64.7835l5.1378 0 0 16.5945 -5.1378 0 0 -16.5945zm8.85236 0l4.78937 0 6.24685 9.17953 0 -9.17953 4.83425 0 0 16.5945 -4.83425 0 -6.21496 -9.11102 0 9.11102 -4.82126 0 0 -16.5945zm19.2969 0l12.6803 0 0 3.56693 -7.53071 0 0 2.89724 6.42992 0 0 3.34961 -6.42992 0 0 6.78071 -5.14961 0 0 -16.5945zm15.6449 0l5.13661 0 0 16.5945 -5.13661 0 0 -16.5945zm8.85118 0l4.78937 0 6.24803 9.17953 0 -9.17953 4.83307 0 0 16.5945 -4.83307 0 -6.21614 -9.11102 0 9.11102 -4.82126 0 0 -16.5945zm19.4799 0l5.1378 0 0 16.5945 -5.1378 0 0 -16.5945zm7.65354 0l15.5846 0 0 4.09961 -5.2311 0 0 12.4949 -5.12598 0 0 -12.4949 -5.22756 0 0 -4.09961zm16.4657 8.30669c0,-2.70827 0.757087,-4.81772 2.26417,-6.3248 1.51181,-1.50945 3.61299,-2.26417 6.30472,-2.26417 2.76378,0 4.89094,0.741732 6.3874,2.2252 1.49173,1.47992 2.24055,3.55984 2.24055,6.22913 0,1.93819 -0.328346,3.5315 -0.980315,4.77047 -0.65315,1.24134 -1.59685,2.20748 -2.82874,2.89843 -1.23661,0.692126 -2.77087,1.03465 -4.61339,1.03465 -1.86969,0 -3.41929,-0.296457 -4.64764,-0.891732 -1.2248,-0.598819 -2.21811,-1.54134 -2.98346,-2.83228 -0.76063,-1.28976 -1.14331,-2.90433 -1.14331,-4.84488zm5.13189 0.023622c0,1.67598 0.308268,2.87835 0.930709,3.61181 0.62126,0.731102 1.47165,1.09843 2.54173,1.09843 1.10079,0 1.95472,-0.360236 2.55827,-1.0748 0.602362,-0.71811 0.908268,-2.00551 0.908268,-3.85866 0,-1.56496 -0.317717,-2.70472 -0.947244,-3.42756 -0.630709,-0.71811 -1.48346,-1.07835 -2.56535,-1.07835 -1.03228,0 -1.8626,0.36378 -2.48858,1.09843 -0.625984,0.72874 -0.937795,1.94173 -0.937795,3.63071z"/>
   <path id="_145699240" class="fil4" d="M58.885 64.1787l5.1378 0 0 16.5933 -5.1378 0 0 -16.5933zm8.85118 0l4.79055 0 6.24685 9.17953 0 -9.17953 4.83425 0 0 16.5933 -4.83425 0 -6.21614 -9.10984 0 9.10984 -4.82126 0 0 -16.5933zm19.298 0l12.6803 0 0 3.56575 -7.53071 0 0 2.89724 6.42992 0 0 3.35079 -6.42992 0 0 6.77953 -5.14961 0 0 -16.5933zm15.6437 0l5.1378 0 0 16.5933 -5.1378 0 0 -16.5933zm8.85236 0l4.78937 0 6.24685 9.17953 0 -9.17953 4.83425 0 0 16.5933 -4.83425 0 -6.21496 -9.10984 0 9.10984 -4.82126 0 0 -16.5933zm19.4799 0l5.13661 0 0 16.5933 -5.13661 0 0 -16.5933zm7.65236 0l15.5858 0 0 4.09961 -5.2311 0 0 12.4937 -5.12717 0 0 -12.4937 -5.22756 0 0 -4.09961zm16.4669 8.30551c0,-2.70827 0.757087,-4.81654 2.26417,-6.3248 1.51063,-1.50945 3.61299,-2.26417 6.30472,-2.26417 2.7626,0 4.89094,0.742913 6.3874,2.22638 1.49055,1.47992 2.24055,3.55866 2.24055,6.22795 0,1.93937 -0.329528,3.5315 -0.981496,4.77165 -0.65315,1.24016 -1.59567,2.2063 -2.82756,2.89843 -1.2378,0.690945 -2.77087,1.03465 -4.61339,1.03465 -1.87087,0 -3.41929,-0.296457 -4.64764,-0.892913 -1.2248,-0.598819 -2.21811,-1.54016 -2.98346,-2.8311 -0.76063,-1.28976 -1.14331,-2.90551 -1.14331,-4.84606zm5.13071 0.0248031c0,1.67598 0.309449,2.87835 0.930709,3.61063 0.622441,0.731102 1.47283,1.09843 2.54173,1.09843 1.10197,0 1.95591,-0.360236 2.55827,-1.0748 0.603543,-0.716929 0.908268,-2.00433 0.908268,-3.85866 0,-1.56496 -0.317717,-2.70472 -0.946063,-3.42756 -0.630709,-0.71811 -1.48465,-1.07835 -2.56654,-1.07835 -1.0311,0 -1.8626,0.36378 -2.4874,1.09843 -0.625984,0.72874 -0.938976,1.94291 -0.938976,3.63189z"/>
   <path id="_145698352" class="fil3" d="M109.861 90.685l4.6252 0 1.66654 8.8063 2.43071 -8.8063 4.61339 0 2.44252 8.8063 1.66535 -8.8063 4.60394 0 -3.47244 15.7665 -4.77638 0 -2.76496 -9.92598 -2.75315 9.92598 -4.7752 0 -3.50551 -15.7665zm23.6398 0l13.0535 0 0 3.36614 -8.17087 0 0 2.50866 7.58031 0 0 3.21496 -7.58031 0 0 3.10512 8.41063 0 0 3.57165 -13.2933 0 0 -15.7665zm15.9248 0l9.12165 0c1.52008,0 2.68701,0.379134 3.49961,1.13031 0.81378,0.753543 1.22244,1.68543 1.22244,2.79331 0,0.934252 -0.290551,1.73268 -0.870472,2.40118 -0.388583,0.445276 -0.954331,0.797244 -1.69961,1.05472 1.1315,0.271654 1.96417,0.740551 2.49921,1.40197 0.532677,0.66378 0.800787,1.49764 0.800787,2.49921 0,0.818504 -0.191339,1.55315 -0.569291,2.20748 -0.381496,0.651969 -0.898819,1.16693 -1.56024,1.54843 -0.40748,0.235039 -1.02402,0.40748 -1.84961,0.51378 -1.09724,0.142913 -1.82362,0.216142 -2.18386,0.216142l-8.41063 0 0 -15.7665zm4.91457 6.18543l2.12008 0c0.759449,0 1.28858,-0.132283 1.58858,-0.392126 0.297638,-0.264567 0.444094,-0.643701 0.444094,-1.13504 0,-0.459449 -0.146457,-0.818504 -0.444094,-1.07598 -0.3,-0.259843 -0.818504,-0.388583 -1.55669,-0.388583l-2.15197 0 0 2.99173zm0 6.19252l2.48622 0c0.840945,0 1.4315,-0.146457 1.77283,-0.444094 0.344882,-0.296457 0.517323,-0.69685 0.517323,-1.2 0,-0.466535 -0.168898,-0.839764 -0.510236,-1.12323 -0.341339,-0.282283 -0.935433,-0.426378 -1.79173,-0.426378l-2.47441 0 0 3.1937zm19.6181 -12.378l7.23898 0c1.42323,0 2.57717,0.194882 3.45827,0.579921 0.877559,0.389764 1.60394,0.943701 2.17559,1.66654 0.574016,0.726378 0.988583,1.56732 1.24843,2.52992 0.258661,0.961417 0.38622,1.97835 0.38622,3.05433 0,1.68543 -0.190157,2.99055 -0.577559,3.92008 -0.381496,0.928346 -0.912992,1.70669 -1.59567,2.3315 -0.679134,0.627165 -1.41024,1.04528 -2.19213,1.25551 -1.06772,0.287008 -2.0374,0.42874 -2.90315,0.42874l-7.23898 0 0 -15.7665zm4.87087 3.57283l0 8.61142 1.19409 0c1.02047,0 1.74331,-0.109843 2.17205,-0.337795 0.429921,-0.224409 0.767717,-0.620079 1.01339,-1.18228 0.243307,-0.562205 0.36378,-1.47638 0.36378,-2.7378 0,-1.67008 -0.271654,-2.8122 -0.814961,-3.42992 -0.54685,-0.616535 -1.45039,-0.923622 -2.71299,-0.923622l-1.21535 0zm12.1866 -3.57283l13.0535 0 0 3.36614 -8.17087 0 0 2.50866 7.58031 0 0 3.21496 -7.58031 0 0 3.10512 8.41063 0 0 3.57165 -13.2933 0 0 -15.7665zm15.065 10.5508l4.63819 -0.290551c0.0980315,0.753543 0.303543,1.32638 0.612992,1.72205 0.498425,0.638976 1.21772,0.954331 2.14961,0.954331 0.694488,0 1.22953,-0.161811 1.60866,-0.488976 0.374409,-0.325984 0.562205,-0.703937 0.562205,-1.13386 0,-0.406299 -0.175984,-0.774803 -0.53622,-1.09724 -0.359055,-0.322441 -1.19055,-0.628346 -2.49567,-0.914173 -2.13661,-0.480709 -3.66024,-1.11614 -4.57087,-1.91339 -0.917717,-0.794882 -1.37717,-1.80827 -1.37717,-3.04252 0,-0.811417 0.23622,-1.57795 0.705118,-2.29724 0.470079,-0.719291 1.17402,-1.28504 2.11772,-1.70079 0.944882,-0.411024 2.23701,-0.616535 3.87638,-0.616535 2.01496,0 3.55394,0.374409 4.61102,1.12323 1.05709,0.75 1.68543,1.94173 1.88622,3.5752l-4.59213 0.26811c-0.121654,-0.70748 -0.377953,-1.22598 -0.770079,-1.54843 -0.389764,-0.318898 -0.928346,-0.480709 -1.61575,-0.480709 -0.56811,0 -0.994488,0.11811 -1.28031,0.359055 -0.287008,0.238583 -0.429921,0.532677 -0.429921,0.87874 0,0.248031 0.116929,0.472441 0.351969,0.675591 0.231496,0.207874 0.774803,0.398031 1.63819,0.57874 2.12835,0.459449 3.65197,0.925984 4.57323,1.39488 0.92126,0.470079 1.59331,1.05118 2.01142,1.74685 0.419291,0.694488 0.63189,1.47283 0.63189,2.33622 0,1.00866 -0.283465,1.94173 -0.840945,2.79331 -0.55748,0.853937 -1.33937,1.50118 -2.34567,1.94173 -1.00157,0.440551 -2.2689,0.660236 -3.79488,0.660236 -2.67992,0 -4.5378,-0.51378 -5.57008,-1.54843 -1.03346,-1.03228 -1.61811,-2.34213 -1.75512,-3.93543zm16.95 -10.5508l4.88268 0 0 15.7665 -4.88268 0 0 -15.7665zm16.3063 10.0547l0 -3.27874 7.52362 0 0 6.72165c-1.43858,0.980315 -2.71181,1.65236 -3.81969,2.00551 -1.11024,0.355512 -2.42362,0.531496 -3.9437,0.531496 -1.87205,0 -3.39449,-0.318898 -4.57323,-0.957874 -1.18228,-0.634252 -2.09646,-1.58504 -2.74252,-2.84882 -0.649606,-1.2626 -0.976772,-2.70945 -0.976772,-4.34173 0,-1.72323 0.356693,-3.22087 1.06535,-4.49409 0.711024,-1.27087 1.75039,-2.23465 3.11929,-2.89724 1.0689,-0.509055 2.50866,-0.762992 4.31339,-0.762992 1.73976,0 3.0437,0.158268 3.91063,0.474803 0.862205,0.315354 1.57677,0.80315 2.15079,1.46693 0.56811,0.661417 0.998031,1.50236 1.28386,2.52165l-4.69843 0.838583c-0.193701,-0.595276 -0.525591,-1.05118 -0.987402,-1.36654 -0.458268,-0.315354 -1.05,-0.473622 -1.76575,-0.473622 -1.0689,0 -1.91929,0.370866 -2.55472,1.11142 -0.635433,0.746457 -0.954331,1.91693 -0.954331,3.52559 0,1.70669 0.322441,2.92441 0.966142,3.65551 0.637795,0.729921 1.53307,1.09843 2.68346,1.09843 0.542126,0 1.06417,-0.0814961 1.55551,-0.238583 0.496063,-0.158268 1.06535,-0.426378 1.70079,-0.805512l0 -1.48583 -3.2563 0zm10.4516 -10.0547l4.55079 0 5.9374 8.72244 0 -8.72244 4.59213 0 0 15.7665 -4.59213 0 -5.90787 -8.6563 0 8.6563 -4.58031 0 0 -15.7665z"/>
   <path id="_145699048" class="fil5" d="M108.964 89.7024l4.62638 0 1.66654 8.80748 2.43071 -8.80748 4.61339 0 2.44134 8.80748 1.66654 -8.80748 4.60394 0 -3.47362 15.7677 -4.7752 0 -2.76496 -9.92598 -2.75315 9.92598 -4.7752 0 -3.50669 -15.7677zm23.6409 0l13.0535 0 0 3.36732 -8.17087 0 0 2.50748 7.58031 0 0 3.21496 -7.58031 0 0 3.1063 8.40945 0 0 3.57165 -13.2921 0 0 -15.7677zm15.9248 0l9.12165 0c1.52008,0 2.68701,0.379134 3.49843,1.1315 0.814961,0.753543 1.22244,1.68543 1.22244,2.79331 0,0.933071 -0.290551,1.73268 -0.869291,2.4 -0.388583,0.446457 -0.954331,0.797244 -1.69961,1.05472 1.13031,0.271654 1.96417,0.740551 2.49921,1.40315 0.532677,0.66378 0.800787,1.49646 0.800787,2.49921 0,0.817323 -0.191339,1.55197 -0.569291,2.2063 -0.381496,0.65315 -0.9,1.16693 -1.56024,1.54843 -0.40748,0.235039 -1.02402,0.408661 -1.84961,0.514961 -1.09724,0.141732 -1.8248,0.216142 -2.18504,0.216142l-8.40945 0 0 -15.7677zm4.91457 6.18661l2.1189 0c0.759449,0 1.28858,-0.132283 1.58858,-0.393307 0.297638,-0.263386 0.444094,-0.64252 0.444094,-1.13386 0,-0.459449 -0.146457,-0.818504 -0.444094,-1.07598 -0.3,-0.259843 -0.817323,-0.389764 -1.55551,-0.389764l-2.15197 0 0 2.99291zm0 6.19252l2.48622 0c0.839764,0 1.43031,-0.146457 1.77165,-0.444094 0.346063,-0.296457 0.518504,-0.69685 0.518504,-1.2 0,-0.466535 -0.168898,-0.840945 -0.510236,-1.12323 -0.341339,-0.283465 -0.935433,-0.426378 -1.79173,-0.426378l-2.47441 0 0 3.1937zm19.6169 -12.3791l7.24016 0c1.42323,0 2.57717,0.196063 3.45709,0.581102 0.87874,0.388583 1.60512,0.94252 2.17677,1.66654 0.572835,0.726378 0.988583,1.56732 1.24843,2.52874 0.25748,0.962598 0.385039,1.97953 0.385039,3.05551 0,1.68425 -0.190157,2.99055 -0.576378,3.92008 -0.381496,0.928346 -0.912992,1.70669 -1.59567,2.33031 -0.680315,0.628346 -1.41024,1.04646 -2.19213,1.25669 -1.0689,0.285827 -2.0374,0.42874 -2.90315,0.42874l-7.24016 0 0 -15.7677zm4.87205 3.57283l0 8.61142 1.19291 0c1.02047,0 1.74449,-0.109843 2.17323,-0.337795 0.42874,-0.223228 0.766535,-0.620079 1.01339,-1.1811 0.242126,-0.562205 0.36378,-1.47638 0.36378,-2.73898 0,-1.67008 -0.272835,-2.8122 -0.816142,-3.42874 -0.545669,-0.616535 -1.44921,-0.924803 -2.71299,-0.924803l-1.21417 0zm12.1866 -3.57283l13.0535 0 0 3.36732 -8.17087 0 0 2.50748 7.58031 0 0 3.21496 -7.58031 0 0 3.1063 8.40945 0 0 3.57165 -13.2921 0 0 -15.7677zm15.065 10.5508l4.63701 -0.28937c0.0992126,0.752362 0.304724,1.3252 0.612992,1.72205 0.499606,0.637795 1.2189,0.954331 2.15079,0.954331 0.694488,0 1.22953,-0.162992 1.60866,-0.488976 0.374409,-0.325984 0.562205,-0.703937 0.562205,-1.13504 0,-0.406299 -0.177165,-0.773622 -0.537402,-1.09724 -0.359055,-0.322441 -1.18937,-0.627165 -2.49567,-0.914173 -2.13661,-0.479528 -3.66024,-1.11614 -4.57087,-1.9122 -0.916535,-0.796063 -1.37598,-1.80945 -1.37598,-3.04252 0,-0.811417 0.235039,-1.57913 0.703937,-2.29843 0.47126,-0.719291 1.1752,-1.28386 2.11772,-1.69961 0.944882,-0.411024 2.23701,-0.616535 3.87756,-0.616535 2.01496,0 3.55394,0.373228 4.61102,1.12323 1.05709,0.748819 1.68425,1.94173 1.88622,3.5752l-4.59213 0.26811c-0.121654,-0.708661 -0.377953,-1.22598 -0.77126,-1.54961 -0.388583,-0.318898 -0.927165,-0.479528 -1.61457,-0.479528 -0.569291,0 -0.994488,0.116929 -1.2815,0.359055 -0.285827,0.238583 -0.429921,0.532677 -0.429921,0.877559 0,0.249213 0.11811,0.473622 0.35315,0.675591 0.231496,0.209055 0.773622,0.399213 1.63701,0.57874 2.12953,0.459449 3.65315,0.925984 4.57323,1.39488 0.922441,0.47126 1.59449,1.05118 2.0126,1.74803 0.41811,0.694488 0.630709,1.47283 0.630709,2.33504 0,1.00866 -0.282283,1.94173 -0.839764,2.79331 -0.558661,0.855118 -1.34055,1.50118 -2.34567,1.94173 -1.00276,0.440551 -2.27008,0.660236 -3.79606,0.660236 -2.67874,0 -4.53661,-0.51378 -5.5689,-1.54843 -1.03465,-1.03228 -1.61811,-2.34094 -1.75512,-3.93543zm16.9488 -10.5508l4.88268 0 0 15.7677 -4.88268 0 0 -15.7677zm16.3063 10.0559l0 -3.27874 7.5248 0 0 6.72165c-1.43858,0.980315 -2.71181,1.65236 -3.82087,2.00433 -1.10906,0.355512 -2.42244,0.531496 -3.94252,0.531496 -1.87323,0 -3.39567,-0.318898 -4.57323,-0.957874 -1.18228,-0.634252 -2.09646,-1.58504 -2.74252,-2.84764 -0.650787,-1.2626 -0.976772,-2.71063 -0.976772,-4.34291 0,-1.72205 0.356693,-3.21969 1.06417,-4.49291 0.712205,-1.27087 1.75157,-2.23583 3.12047,-2.89724 1.06772,-0.509055 2.50748,-0.762992 4.31339,-0.762992 1.73976,0 3.0437,0.157087 3.90945,0.473622 0.862205,0.315354 1.57795,0.80315 2.15079,1.46811 0.569291,0.661417 0.998031,1.50236 1.28504,2.52165l-4.69843 0.837402c-0.193701,-0.595276 -0.525591,-1.05 -0.987402,-1.36535 -0.459449,-0.315354 -1.05118,-0.474803 -1.76575,-0.474803 -1.0689,0 -1.91929,0.372047 -2.55472,1.1126 -0.635433,0.745276 -0.954331,1.91693 -0.954331,3.52559 0,1.70551 0.322441,2.92441 0.964961,3.65433 0.638976,0.731102 1.53425,1.09843 2.68346,1.09843 0.543307,0 1.06535,-0.080315 1.55669,-0.238583 0.494882,-0.157087 1.06417,-0.425197 1.69961,-0.804331l0 -1.48583 -3.2563 0zm10.4516 -10.0559l4.55079 0 5.9374 8.72362 0 -8.72362 4.59213 0 0 15.7677 -4.59213 0 -5.90669 -8.6563 0 8.6563 -4.5815 0 0 -15.7677z"/>
   <polygon id="_145698832" class="fil6" points="56.8902,48.1181 64.7268,48.1181 64.7268,81.2409 56.8902,81.2409 "/>
   <polygon id="_145698928" class="fil7" points="57.1654,30.1122 64.898,30.1122 64.898,37.3335 57.1654,37.3335 "/>
  </g>
 </g>
</svg>
