<?xml version="1.0" encoding="utf-8"?>
<!-- Generator: Adobe Illustrator 14.0.0, SVG Export Plug-In . SVG Version: 6.00 Build 43363)  -->
<!DOCTYPE svg PUBLIC "-//W3C//DTD SVG 1.1//EN" "http://www.w3.org/Graphics/SVG/1.1/DTD/svg11.dtd">
<svg version="1.1" id="Camada_1" xmlns="http://www.w3.org/2000/svg" xmlns:xlink="http://www.w3.org/1999/xlink" x="0px" y="0px"
	 width="280px" height="150px" viewBox="0 0 280 150" enable-background="new 0 0 280 150" xml:space="preserve">
<g>
	
		<rect x="79.941" y="135.477" fill-rule="evenodd" clip-rule="evenodd" fill="#565759" stroke="#000000" stroke-width="0.216" stroke-miterlimit="22.9256" width="167.056" height="12.523"/>
	
		<rect x="148.203" y="88.979" fill-rule="evenodd" clip-rule="evenodd" fill="#565759" stroke="#000000" stroke-width="0.216" stroke-miterlimit="22.9256" width="97.906" height="12.523"/>
	<path d="M110.506,79.453L77.727,9.265l7.891-0.626l21.955,50.65c1.746,4.03,3.408,8.014,4.923,11.979
		c0.15-6.254,0.252-9.855,0.313-10.819l2.598-39.519h9.142l14.408,29.622c3.594,7.351,6.516,14.256,8.789,20.716
		c-0.053-3.694,0.014-7.949,0.188-12.729l1.081-37.61h7.622l-3.429,58.523h-7.298l-21.406-44.585
		c-1.797-3.729-2.873-6.021-3.241-6.87c-0.039,2.686-0.113,4.978-0.24,6.87l-2.79,44.585H110.506z"/>
	<path d="M147.202,79.453l1.894-58.729h19.7c4.455,0,7.836,0.282,10.172,0.843c3.258,0.76,6.008,2.156,8.272,4.175
		c2.938,2.613,5.104,5.933,6.477,9.983c1.396,4.057,2.008,8.683,1.854,13.892c-0.127,4.438-0.743,8.362-1.868,11.791
		c-1.109,3.427-2.487,6.272-4.149,8.517c-1.653,2.244-3.432,4.013-5.36,5.291c-1.915,1.298-4.226,2.274-6.909,2.941
		c-2.693,0.667-5.983,1.403-9.433,1.392L147.202,79.453L147.202,79.453z M155.182,72.25h12.214c3.775,0,6.752-0.35,8.912-1.073
		c2.165-0.723,3.905-1.731,5.226-3.035c1.846-1.82,3.315-4.295,4.404-7.381c1.093-3.109,1.706-6.845,1.833-11.269
		c0.174-6.107-0.679-10.799-2.542-14.078c-1.875-3.294-4.196-5.488-6.975-6.597c-2.002-0.807-5.27-1.196-9.755-1.196h-12.04
		L155.182,72.25z"/>
	<path fill="#F58220" d="M110.633,77.66L77.854,7.469l7.882-0.622l21.96,50.642c1.75,4.034,3.414,8.013,4.92,11.973
		c0.159-6.25,0.257-9.849,0.316-10.816l2.606-39.513h9.135l14.404,29.619c3.539,7.239,6.438,14.058,8.695,20.44l0.077-2.856
		c0.014-2.914,0.083-6.112,0.21-9.593l1.081-37.61h0.074v-0.208h19.714c4.446,0,7.836,0.287,10.167,0.841
		c3.248,0.76,6.013,2.169,8.273,4.175c2.938,2.616,5.103,5.933,6.48,9.988c1.387,4.057,2.003,8.676,1.85,13.885
		c-0.127,4.437-0.748,8.369-1.868,11.798c-1.109,3.424-2.491,6.263-4.149,8.514c-1.648,2.242-3.438,4.01-5.366,5.292
		c-1.915,1.292-4.219,2.266-6.9,2.941c-2.702,0.659-5.775,0.991-9.227,0.991H153.35l-0.017,0.309h-7.298l-21.407-44.588
		c-1.802-3.739-2.874-6.023-3.241-6.87c-0.037,2.686-0.117,4.977-0.24,6.87l-2.789,44.588H110.633L110.633,77.66z M155.3,70.453
		h12.22c3.772,0,6.755-0.349,8.92-1.072s3.905-1.726,5.217-3.036c1.854-1.825,3.319-4.304,4.413-7.388
		c1.085-3.102,1.701-6.842,1.828-11.258c0.174-6.113-0.674-10.809-2.537-14.081c-1.885-3.295-4.202-5.488-6.983-6.599
		c-2.003-0.81-5.27-1.201-9.757-1.201h-12.029L155.3,70.453z"/>
	
		<path fill-rule="evenodd" clip-rule="evenodd" fill="#4B4862" stroke="#000000" stroke-width="0.216" stroke-miterlimit="22.9256" d="
		M154.505,13.163c2.966,0,5.379-2.474,5.379-5.504c0-3.032-2.413-5.503-5.379-5.503c-2.964,0-5.383,2.471-5.383,5.503
		C149.122,10.689,151.541,13.163,154.505,13.163z"/>
	<rect x="19.627" y="87.24" width="5.637" height="18.618"/>
	<polygon points="29.337,87.24 34.594,87.24 41.446,97.541 41.446,87.24 46.748,87.24 46.748,105.858 41.446,105.858 34.626,95.635 
		34.626,105.858 29.337,105.858 	"/>
	<polygon points="50.507,87.24 64.417,87.24 64.417,91.238 56.157,91.238 56.157,94.49 63.21,94.49 63.21,98.251 56.157,98.251 
		56.157,105.858 50.507,105.858 	"/>
	<rect x="67.668" y="87.24" width="5.638" height="18.618"/>
	<polygon points="77.379,87.24 82.635,87.24 89.49,97.541 89.49,87.24 94.79,87.24 94.79,105.858 89.49,105.858 82.668,95.635 
		82.668,105.858 77.379,105.858 	"/>
	<rect x="98.75" y="87.24" width="5.636" height="18.618"/>
	<polygon points="107.146,87.24 124.244,87.24 124.244,91.837 118.506,91.837 118.506,105.858 112.881,105.858 112.881,91.837 
		107.146,91.837 	"/>
	<path d="M125.209,96.561c0-3.041,0.831-5.407,2.484-7.098c1.659-1.695,3.962-2.54,6.917-2.54c3.032,0,5.366,0.831,7.006,2.495
		c1.637,1.664,2.459,3.995,2.459,6.99c0,2.175-0.36,3.963-1.076,5.354c-0.718,1.391-1.75,2.474-3.105,3.252
		c-1.354,0.773-3.039,1.163-5.06,1.163c-2.05,0-3.75-0.335-5.099-1.002c-1.343-0.675-2.43-1.73-3.27-3.181
		C125.63,100.551,125.209,98.734,125.209,96.561L125.209,96.561z M130.84,96.587c0,1.88,0.339,3.23,1.019,4.054
		c0.686,0.817,1.616,1.229,2.793,1.229c1.206,0,2.142-0.403,2.802-1.203c0.66-0.805,0.998-2.25,0.998-4.334
		c0-1.754-0.346-3.032-1.037-3.842c-0.696-0.81-1.631-1.213-2.815-1.213c-1.133,0-2.045,0.407-2.731,1.234
		C131.182,93.332,130.84,94.692,130.84,96.587z"/>
	<polygon points="77.192,111.575 82.265,111.575 84.094,121.459 86.761,111.575 91.822,111.575 94.501,121.459 96.33,111.575 
		101.38,111.575 97.569,129.269 92.331,129.269 89.297,118.128 86.278,129.269 81.037,129.269 	"/>
	<polygon points="103.127,111.575 117.446,111.575 117.446,115.354 108.483,115.354 108.483,118.169 116.799,118.169 
		116.799,121.772 108.483,121.772 108.483,125.262 117.709,125.262 117.709,129.269 103.127,129.269 	"/>
	<path d="M120.597,111.575h10.007c1.667,0,2.949,0.425,3.837,1.27c0.894,0.847,1.343,1.892,1.343,3.136
		c0,1.047-0.319,1.941-0.953,2.692c-0.429,0.502-1.05,0.895-1.868,1.182c1.243,0.304,2.157,0.831,2.743,1.573
		c0.586,0.748,0.878,1.683,0.878,2.806c0,0.921-0.209,1.743-0.625,2.477c-0.421,0.733-0.985,1.311-1.709,1.74
		c-0.449,0.26-1.125,0.456-2.03,0.572c-1.204,0.161-2.003,0.246-2.396,0.246h-9.227V111.575L120.597,111.575z M125.988,118.518
		h2.326c0.833,0,1.414-0.149,1.741-0.439c0.329-0.299,0.488-0.724,0.488-1.274c0-0.515-0.159-0.916-0.488-1.208
		c-0.328-0.29-0.899-0.434-1.704-0.434h-2.363V118.518L125.988,118.518z M125.988,125.468h2.728c0.922,0,1.572-0.166,1.945-0.501
		c0.378-0.332,0.566-0.783,0.566-1.348c0-0.522-0.186-0.942-0.559-1.261c-0.373-0.317-1.025-0.479-1.964-0.479h-2.716V125.468z"/>
	<path d="M147.513,111.575h7.941c1.561,0,2.825,0.22,3.791,0.652c0.961,0.435,1.762,1.057,2.389,1.87
		c0.628,0.814,1.084,1.757,1.367,2.837c0.284,1.082,0.425,2.222,0.425,3.43c0,1.888-0.21,3.354-0.634,4.396
		c-0.415,1.042-1.002,1.913-1.75,2.616c-0.748,0.702-1.549,1.172-2.404,1.409c-1.173,0.321-2.234,0.482-3.184,0.482h-7.941V111.575
		L147.513,111.575z M152.856,115.583v9.665h1.307c1.12,0,1.912-0.126,2.384-0.38c0.473-0.25,0.844-0.698,1.111-1.325
		c0.267-0.629,0.398-1.659,0.398-3.071c0-1.875-0.299-3.157-0.894-3.851c-0.598-0.69-1.591-1.038-2.978-1.038H152.856z"/>
	<polygon points="166.224,111.575 180.545,111.575 180.545,115.354 171.581,115.354 171.581,118.169 179.898,118.169 
		179.898,121.772 171.581,121.772 171.581,125.262 180.809,125.262 180.809,129.269 166.224,129.269 	"/>
	<path d="M182.755,123.415l5.085-0.327c0.109,0.845,0.332,1.49,0.674,1.932c0.547,0.717,1.334,1.073,2.357,1.073
		c0.76,0,1.352-0.183,1.767-0.549c0.405-0.367,0.616-0.793,0.616-1.271c0-0.461-0.197-0.872-0.591-1.234
		c-0.394-0.361-1.302-0.701-2.737-1.023c-2.345-0.542-4.015-1.253-5.017-2.146c-1.005-0.895-1.508-2.031-1.508-3.413
		c0-0.912,0.258-1.771,0.773-2.58c0.517-0.806,1.287-1.441,2.322-1.906c1.037-0.465,2.454-0.693,4.256-0.693
		c2.207,0,3.896,0.42,5.055,1.261c1.158,0.842,1.85,2.179,2.072,4.014l-5.041,0.299c-0.132-0.797-0.412-1.374-0.845-1.735
		c-0.424-0.362-1.019-0.541-1.771-0.541c-0.625,0-1.093,0.129-1.403,0.401c-0.314,0.269-0.472,0.601-0.472,0.985
		c0,0.28,0.127,0.531,0.384,0.76c0.255,0.232,0.853,0.448,1.799,0.648c2.334,0.515,4.004,1.037,5.014,1.565
		c1.016,0.527,1.75,1.176,2.209,1.959c0.46,0.783,0.696,1.654,0.696,2.621c0,1.132-0.311,2.179-0.924,3.135
		c-0.611,0.957-1.473,1.687-2.575,2.18c-1.099,0.491-2.488,0.741-4.163,0.741c-2.939,0-4.976-0.577-6.109-1.74
		C183.541,126.67,182.903,125.203,182.755,123.415z"/>
	<rect x="201.348" y="111.575" width="5.354" height="17.693"/>
	<path d="M219.234,122.859v-3.682h8.255v7.542c-1.579,1.101-2.978,1.855-4.193,2.25c-1.216,0.401-2.655,0.599-4.325,0.599
		c-2.051,0-3.721-0.357-5.017-1.073c-1.298-0.715-2.3-1.78-3.008-3.198c-0.712-1.417-1.07-3.041-1.07-4.875
		c0-1.933,0.389-3.608,1.167-5.04c0.782-1.427,1.92-2.509,3.424-3.247c1.172-0.572,2.751-0.859,4.731-0.859
		c1.907,0,3.338,0.179,4.29,0.532c0.944,0.354,1.731,0.904,2.357,1.646c0.625,0.741,1.098,1.686,1.412,2.83l-5.156,0.94
		c-0.215-0.667-0.577-1.178-1.084-1.534c-0.504-0.354-1.15-0.528-1.938-0.528c-1.172,0-2.103,0.412-2.804,1.248
		c-0.693,0.836-1.045,2.146-1.045,3.954c0,1.914,0.354,3.278,1.059,4.101c0.699,0.818,1.684,1.23,2.944,1.23
		c0.594,0,1.167-0.09,1.709-0.268c0.542-0.176,1.167-0.479,1.862-0.899v-1.669H219.234z"/>
	<polygon points="230.7,111.575 235.693,111.575 242.204,121.361 242.204,111.575 247.242,111.575 247.242,129.269 242.204,129.269 
		235.724,119.555 235.724,129.269 230.7,129.269 	"/>
</g>
</svg>
