<?xml version="1.0" encoding="UTF-8"?>
<!DOCTYPE svg PUBLIC "-//W3C//DTD SVG 1.1//EN" "http://www.w3.org/Graphics/SVG/1.1/DTD/svg11.dtd">
<!-- Creator: CorelDRAW -->
<svg xmlns="http://www.w3.org/2000/svg" xml:space="preserve" width="300px" height="125px" style="shape-rendering:geometricPrecision; text-rendering:geometricPrecision; image-rendering:optimizeQuality; fill-rule:evenodd; clip-rule:evenodd"
viewBox="0 0 300 124.998"
 xmlns:xlink="http://www.w3.org/1999/xlink">
 <defs>
  <style type="text/css">
   <![CDATA[
    .fil0 {fill:none}
    .fil2 {fill:#1F1A17}
    .fil7 {fill:#4A4555}
    .fil1 {fill:#4A4745}
    .fil6 {fill:#E77817}
    .fil3 {fill:#1F1A17;fill-rule:nonzero}
    .fil5 {fill:#DA251D;fill-rule:nonzero}
    .fil4 {fill:#E77817;fill-rule:nonzero}
   ]]>
  </style>
 </defs>
 <g id="Camada_x0020_1">
  <metadata id="CorelCorpID_0Corel-Layer"/>
  <polygon class="fil0" points="16.9937,-14.6409 283.007,-14.6409 283.007,139.639 16.9937,139.639 "/>
  <g id="_146516352">
   <path id="_145699600" class="fil1" d="M98.8854 99.2681c-21.6638,18.3071 -54.1984,15.7276 -70.7787,-8.00906 -13.9559,-21.3177 -7.85079,-50.1449 15.4902,-61.7457 20.7425,-9.45827 45.6354,0.295276 51.528,23.028 4.34528,19.3949 -8.94685,39.0213 -29.5559,38.8287 -19.3925,-0.767717 -32.5016,-20.9492 -22.5189,-38.263 1.64291,-2.76614 3.9815,-4.74331 5.7378,-7.31693 0.980315,-1.64291 -2.47913,-0.167717 -2.82992,-0.00590551 -14.1378,6.97559 -15.5965,26.2547 -8.44843,38.687 11.2004,18.5835 35.589,21.6413 52.9665,9.9626 24.1134,-17.0787 23.511,-51.365 2.64449,-70.7161 -23.4449,-20.9445 -58.9028,-15.7807 -78.0756,8.04567 -6.2315,7.90039 -9.54094,16.3075 -12.2492,25.8331 -1.11378,3.77362 -0.335433,-2.78622 -0.245669,-3.3815 4.70669,-30.2173 33.8504,-51.4299 63.9874,-48.4417 14.4295,1.67244 27.339,8.39528 36.8917,19.3618 18.5126,22.1339 17.1957,54.6154 -4.5437,74.1331z"/>
   <polygon id="_145699816" class="fil2" points="62.0764,38.4449 70.9406,38.4449 70.9406,75.9118 62.0764,75.9118 "/>
   <path id="_145699720" class="fil1" d="M117.908 100.74l4.51772 0 1.60157 4.18701 5.40236 0 1.99724 -4.18701 2.24055 0 2.00433 4.18701 5.40236 0 1.58504 -4.18701 4.14449 0 0 4.18701 15.0378 0 0 -2.35039 -9.51378 0 0 -1.83661 12.4902 0 0 4.18701 9.51496 0c0.406299,0 1.22835,-0.0484252 2.47087,-0.142913 0.933071,-0.069685 1.6311,-0.183071 2.09291,-0.337795 0.747638,-0.251575 1.33228,-0.58937 1.76457,-1.01929 0.427559,-0.429921 0.643701,-0.912992 0.643701,-1.45157 0,-0.466535 -0.155906,-0.879921 -0.459449,-1.23543l11.726 0 0 4.18701 8.18858 0c0.980315,0 2.07756,-0.0944882 3.28583,-0.283465 0.884646,-0.137008 1.71024,-0.413386 2.47913,-0.825591 0.77126,-0.411024 1.37362,-0.922441 1.80591,-1.53425 0.28937,-0.405118 0.475984,-0.918898 0.572835,-1.5437l2.96457 0 0 4.18701 15.0378 0 0 -2.35039 -9.51378 0 0 -1.83661 19.4091 0c1.19409,0.168898 1.97008,0.347244 2.33031,0.535039 0.406299,0.212598 0.605906,0.453543 0.605906,0.721654 0,0.283465 -0.212598,0.531496 -0.635433,0.746457 -0.427559,0.214961 -1.03346,0.32126 -1.8189,0.32126 -1.05472,0 -1.8685,-0.207874 -2.43307,-0.628346 -0.349606,-0.261024 -0.581102,-0.637795 -0.693307,-1.13268l-5.24528 0.191339c0.153543,1.04882 0.81378,1.90984 1.98425,2.58898 1.16811,0.680315 3.26811,1.01929 6.3,1.01929 1.72795,0 3.16063,-0.145276 4.29449,-0.434646 1.1374,-0.290551 2.02205,-0.715748 2.65276,-1.27795 0.63189,-0.559843 0.951969,-1.17402 0.951969,-1.8378 0,-0.284646 -0.0614173,-0.555118 -0.18189,-0.812598l3.17126 0 0 4.18701 5.52283 0 0 -4.18701 3.38386 0c0.16063,0.675591 0.494882,1.29567 0.992126,1.85906 0.732283,0.830315 1.76575,1.4563 3.10157,1.87323 1.33465,0.420472 3.05669,0.630709 5.17559,0.630709 1.7185,0 3.20551,-0.116929 4.45984,-0.349606 1.25315,-0.232677 2.69528,-0.674409 4.32283,-1.31929l0 -2.69409 3.30945 0 0 4.18701 5.18268 0 0 -4.18701 1.77165 0 4.90984 4.18701 5.19567 0 0 -4.18701 1.1752 0 0 15.9496 -178.68 0 0 -15.9496zm52.4717 0l4.42441 0c0.154724,0.0389764 0.290551,0.0838583 0.400394,0.135827 0.38622,0.186614 0.576378,0.432283 0.576378,0.73937 0,0.330709 -0.194882,0.594094 -0.584646,0.790157 -0.38622,0.196063 -1.05472,0.291732 -2.00669,0.291732l-2.80984 0 0 -1.95709zm27.7028 0l5.27835 0c-0.0685039,0.348425 -0.172441,0.624803 -0.324803,0.829134 -0.27874,0.369685 -0.659055,0.630709 -1.14685,0.778346 -0.485433,0.148819 -1.30276,0.220866 -2.45787,0.220866l-1.34882 0 0 -1.82835zm64.4445 0l4.00394 0 0 0.42874 3.68268 0 0 0.977953c-0.71811,0.248031 -1.36299,0.425197 -1.92283,0.529134 -0.556299,0.102756 -1.14685,0.155906 -1.75984,0.155906 -1.30039,0 -2.31378,-0.240945 -3.03543,-0.721654 -0.480709,-0.316535 -0.805512,-0.772441 -0.968504,-1.37008z"/>
   <path id="_145699456" class="fil1" d="M193.572 55.4882l103.488 0 0 18.8398 -103.488 0c4.06299,-5.45669 4.15157,-13.4492 0,-18.8398z"/>
   <path id="_145699360" class="fil3" d="M63.8681 56.1579l5.8122 0 0 18.7701 -5.8122 0 0 -18.7701zm10.0134 0l5.41772 0 7.06654 10.3831 0 -10.3831 5.46732 0 0 18.7701 -5.46732 0 -7.0311 -10.3063 0 10.3063 -5.45315 0 0 -18.7701zm21.828 0l14.3433 0 0 4.03346 -8.51811 0 0 3.27756 7.27323 0 0 3.78898 -7.27323 0 0 7.67008 -5.8252 0 0 -18.7701zm17.6953 0l5.8122 0 0 18.7701 -5.8122 0 0 -18.7701zm10.0134 0l5.41772 0 7.06654 10.3831 0 -10.3831 5.46732 0 0 18.7701 -5.46732 0 -7.0311 -10.3063 0 10.3063 -5.45315 0 0 -18.7701zm22.0335 0l5.8122 0 0 18.7701 -5.8122 0 0 -18.7701zm8.65748 0l17.6291 0 0 4.63701 -5.91732 0 0 14.1331 -5.79803 0 0 -14.1331 -5.91378 0 0 -4.63701zm18.626 9.39567c0,-3.06378 0.856299,-5.44961 2.56063,-7.15512 1.70906,-1.70787 4.08661,-2.56063 7.1315,-2.56063 3.12638,0 5.53346,0.838583 7.2248,2.51693 1.68661,1.6748 2.53465,4.02638 2.53465,7.04528 0,2.19331 -0.372047,3.99449 -1.10906,5.39764 -0.73937,1.40315 -1.80591,2.49567 -3.19961,3.27756 -1.39961,0.783071 -3.13465,1.17047 -5.21811,1.17047 -2.11535,0 -3.86693,-0.335433 -5.25709,-1.00866 -1.38543,-0.677953 -2.50866,-1.74331 -3.37441,-3.20315 -0.861024,-1.45984 -1.29331,-3.28583 -1.29331,-5.48031zm5.80394 0.0259843c0,1.89685 0.349606,3.2563 1.05236,4.08543 0.703937,0.826772 1.66535,1.24252 2.87598,1.24252 1.24488,0 2.21102,-0.40748 2.8937,-1.21535 0.681496,-0.812598 1.02756,-2.2689 1.02756,-4.36535 0,-1.77047 -0.360236,-3.05906 -1.07126,-3.87756 -0.713386,-0.811417 -1.67835,-1.2189 -2.90315,-1.2189 -1.16693,0 -2.10591,0.411024 -2.81339,1.24252 -0.70748,0.824409 -1.06181,2.19685 -1.06181,4.10669z"/>
   <path id="_145699240" class="fil4" d="M62.9268 55.4728l5.81102 0 0 18.7701 -5.81102 0 0 -18.7701zm10.0122 0l5.41772 0 7.06654 10.3831 0 -10.3831 5.46732 0 0 18.7701 -5.46732 0 -7.0311 -10.3063 0 10.3063 -5.45315 0 0 -18.7701zm21.828 0l14.3433 0 0 4.03346 -8.51811 0 0 3.27756 7.27323 0 0 3.78898 -7.27323 0 0 7.67008 -5.8252 0 0 -18.7701zm17.6953 0l5.8122 0 0 18.7701 -5.8122 0 0 -18.7701zm10.0134 0l5.41772 0 7.06654 10.3831 0 -10.3831 5.46732 0 0 18.7701 -5.46732 0 -7.0311 -10.3063 0 10.3063 -5.45315 0 0 -18.7701zm22.0335 0l5.8122 0 0 18.7701 -5.8122 0 0 -18.7701zm8.65748 0l17.6291 0 0 4.63701 -5.91732 0 0 14.1331 -5.79803 0 0 -14.1331 -5.91378 0 0 -4.63701zm18.626 9.39567c0,-3.06378 0.856299,-5.44961 2.56063,-7.15394 1.70906,-1.70906 4.08661,-2.56181 7.1315,-2.56181 3.12638,0 5.53346,0.839764 7.22598,2.51693 1.68661,1.6748 2.53346,4.02638 2.53346,7.04528 0,2.19331 -0.372047,3.99449 -1.10906,5.39764 -0.738189,1.40315 -1.80591,2.49567 -3.19961,3.27874 -1.39961,0.78189 -3.13346,1.16929 -5.21811,1.16929 -2.11535,0 -3.86693,-0.335433 -5.25709,-1.00866 -1.38543,-0.677953 -2.50866,-1.74331 -3.37441,-3.20315 -0.861024,-1.45866 -1.29331,-3.28583 -1.29331,-5.48031zm5.80394 0.0271654c0,1.89567 0.349606,3.25512 1.05354,4.08425 0.702756,0.826772 1.66535,1.24252 2.8748,1.24252 1.24488,0 2.21102,-0.40748 2.8937,-1.21535 0.681496,-0.812598 1.02756,-2.26772 1.02756,-4.36535 0,-1.77047 -0.360236,-3.05906 -1.07126,-3.87756 -0.713386,-0.811417 -1.67835,-1.2189 -2.90197,-1.2189 -1.16811,0 -2.10709,0.411024 -2.81457,1.24252 -0.70748,0.824409 -1.06181,2.19685 -1.06181,4.10787z"/>
   <path id="_145698352" class="fil3" d="M120.587 85.4551l5.23346 0 1.88504 9.96142 2.74843 -9.96142 5.21929 0 2.76142 9.96142 1.88504 -9.96142 5.20748 0 -3.92835 17.8346 -5.40236 0 -3.12756 -11.2276 -3.11457 11.2276 -5.4 0 -3.96732 -17.8346zm26.7413 0l14.765 0 0 3.80787 -9.24213 0 0 2.83701 8.5748 0 0 3.63661 -8.5748 0 0 3.51378 9.5126 0 0 4.03937 -15.0354 0 0 -17.8346zm18.013 0l10.3181 0c1.71969,0 3.03898,0.42874 3.95787,1.27913 0.92126,0.851575 1.38189,1.9063 1.38189,3.15945 0,1.05591 -0.328346,1.96063 -0.982677,2.71535 -0.440551,0.504331 -1.07953,0.901181 -1.92283,1.19291 1.27913,0.307087 2.22165,0.837402 2.82638,1.58622 0.603543,0.751181 0.905906,1.6937 0.905906,2.82756 0,0.924803 -0.216142,1.7563 -0.643701,2.49567 -0.431102,0.73937 -1.01693,1.32047 -1.76457,1.75157 -0.461811,0.266929 -1.15866,0.461811 -2.09291,0.582283 -1.24134,0.16063 -2.06339,0.244488 -2.47087,0.244488l-9.5126 0 0 -17.8346zm5.55945 6.99685l2.39764 0c0.858661,0 1.45748,-0.15 1.79646,-0.444094 0.336614,-0.298819 0.501969,-0.727559 0.501969,-1.28268 0,-0.519685 -0.165354,-0.925984 -0.501969,-1.21772 -0.338976,-0.294094 -0.924803,-0.43937 -1.75984,-0.43937l-2.43425 0 0 3.38386zm0 7.00512l2.8122 0c0.950787,0 1.61811,-0.166535 2.00433,-0.50315 0.390945,-0.335433 0.585827,-0.787795 0.585827,-1.35709 0,-0.527953 -0.191339,-0.950787 -0.577559,-1.26969 -0.38622,-0.320079 -1.05827,-0.483071 -2.02559,-0.483071l-2.79921 0 0 3.61299zm22.1906 -14.002l8.18858 0c1.60984,0 2.91496,0.220866 3.91063,0.656693 0.993307,0.43937 1.81535,1.06654 2.4626,1.88504 0.647244,0.822047 1.11732,1.77283 1.41142,2.86063 0.291732,1.0878 0.435827,2.23819 0.435827,3.45591 0,1.90512 -0.214961,3.38268 -0.651969,4.43386 -0.431102,1.05 -1.03346,1.92992 -1.80591,2.63622 -0.767717,0.711024 -1.59449,1.18346 -2.47913,1.42087 -1.20827,0.323622 -2.30433,0.485433 -3.28346,0.485433l-8.18858 0 0 -17.8346zm5.50984 4.04173l0 9.74055 1.35 0c1.15394,0 1.97244,-0.125197 2.45787,-0.382677 0.485433,-0.252756 0.866929,-0.701575 1.14567,-1.33701 0.275197,-0.635433 0.412205,-1.6689 0.412205,-3.09685 0,-1.88976 -0.308268,-3.18071 -0.922441,-3.87874 -0.618898,-0.698031 -1.64055,-1.04528 -3.06969,-1.04528l-1.37362 0zm13.7846 -4.04173l14.7661 0 0 3.80787 -9.24331 0 0 2.83701 8.5748 0 0 3.63661 -8.5748 0 0 3.51378 9.5126 0 0 4.03937 -15.0354 0 0 -17.8346zm17.0409 11.9339l5.24528 -0.328346c0.112205,0.852756 0.343701,1.5 0.693307,1.94882 0.564567,0.721654 1.37835,1.07953 2.43307,1.07953 0.785433,0 1.39016,-0.184252 1.8189,-0.552756 0.422835,-0.369685 0.635433,-0.797244 0.635433,-1.28386 0,-0.459449 -0.199606,-0.876378 -0.607087,-1.24134 -0.406299,-0.364961 -1.34528,-0.709843 -2.82283,-1.03346 -2.41654,-0.543307 -4.13976,-1.2626 -5.16969,-2.16378 -1.03819,-0.9 -1.55669,-2.04685 -1.55669,-3.44173 0,-0.917717 0.265748,-1.78583 0.796063,-2.59961 0.532677,-0.812598 1.32874,-1.45276 2.39528,-1.92283 1.0689,-0.465354 2.5311,-0.69685 4.38543,-0.69685 2.27953,0 4.02047,0.422835 5.21575,1.26969 1.19528,0.848031 1.9063,2.19685 2.13425,4.04409l-5.19449 0.303543c-0.137008,-0.800787 -0.427559,-1.38661 -0.871654,-1.75157 -0.440551,-0.361417 -1.05,-0.543307 -1.82717,-0.543307 -0.643701,0 -1.12441,0.132283 -1.44921,0.405118 -0.323622,0.270472 -0.486614,0.603543 -0.486614,0.993307 0,0.282283 0.133465,0.535039 0.399213,0.764173 0.262205,0.23622 0.876378,0.452362 1.85197,0.655512 2.40827,0.519685 4.13268,1.04764 5.17323,1.57795 1.04291,0.531496 1.80354,1.18819 2.27598,1.97717 0.473622,0.784252 0.714567,1.66535 0.714567,2.64094 0,1.14094 -0.320079,2.19685 -0.950787,3.16063 -0.63189,0.966142 -1.51535,1.69724 -2.65394,2.19567 -1.13268,0.498425 -2.56654,0.746457 -4.29213,0.746457 -3.03189,0 -5.13307,-0.581102 -6.3,-1.75157 -1.17047,-1.16693 -1.83071,-2.64803 -1.98543,-4.45157zm19.1717 -11.9339l5.52283 0 0 17.8346 -5.52283 0 0 -17.8346zm18.4453 11.374l0 -3.70866 8.51102 0 0 7.60276c-1.62756,1.10906 -3.0685,1.8685 -4.32165,2.26772 -1.25551,0.402756 -2.74134,0.601181 -4.45984,0.601181 -2.1189,0 -3.84094,-0.360236 -5.17323,-1.08307 -1.33701,-0.71811 -2.37165,-1.79291 -3.10157,-3.22205 -0.735827,-1.42795 -1.10551,-3.06496 -1.10551,-4.9122 0,-1.94764 0.402756,-3.64134 1.20472,-5.08228 0.804331,-1.4374 1.98071,-2.52874 3.52795,-3.27756 1.20945,-0.575197 2.83819,-0.862205 4.87913,-0.862205 1.9689,0 3.44291,0.178346 4.42323,0.53622 0.975591,0.356693 1.78465,0.908268 2.43307,1.65945 0.643701,0.748819 1.12913,1.69961 1.45276,2.85236l-5.31496 0.948425c-0.218504,-0.673228 -0.594094,-1.18819 -1.11614,-1.54488 -0.519685,-0.356693 -1.18819,-0.53622 -1.99843,-0.53622 -1.20827,0 -2.16969,0.419291 -2.88898,1.25787 -0.719291,0.843307 -1.07953,2.16732 -1.07953,3.9874 0,1.92992 0.364961,3.30827 1.09252,4.13386 0.721654,0.826772 1.73504,1.24252 3.03543,1.24252 0.614173,0 1.20354,-0.092126 1.75984,-0.270472 0.559843,-0.178346 1.20472,-0.480709 1.92283,-0.909449l0 -1.68071 -3.68268 0zm11.8217 -11.374l5.14843 0 6.71575 9.86693 0 -9.86693 5.19449 0 0 17.8346 -5.19449 0 -6.68268 -9.79134 0 9.79134 -5.1815 0 0 -17.8346z"/>
   <path id="_145699048" class="fil5" d="M119.572 84.3449l5.23346 0 1.88504 9.96142 2.74843 -9.96142 5.21929 0 2.76142 9.96142 1.88504 -9.96142 5.20748 0 -3.92835 17.8346 -5.40236 0 -3.12756 -11.2287 -3.11457 11.2287 -5.4 0 -3.96732 -17.8346zm26.7413 0l14.765 0 0 3.80669 -9.24213 0 0 2.83819 8.5748 0 0 3.63543 -8.5748 0 0 3.51378 9.5126 0 0 4.04055 -15.0354 0 0 -17.8346zm18.013 0l10.3181 0c1.71969,0 3.03898,0.42874 3.95787,1.27913 0.92126,0.851575 1.38189,1.90512 1.38189,3.15945 0,1.05591 -0.327165,1.95945 -0.982677,2.71535 -0.440551,0.50315 -1.07953,0.901181 -1.92283,1.19291 1.27913,0.307087 2.22165,0.837402 2.82638,1.58622 0.603543,0.751181 0.905906,1.6937 0.905906,2.82638 0,0.925984 -0.216142,1.7563 -0.643701,2.49685 -0.431102,0.738189 -1.01693,1.32047 -1.76457,1.75157 -0.461811,0.265748 -1.15866,0.461811 -2.09291,0.581102 -1.24134,0.161811 -2.06339,0.245669 -2.47087,0.245669l-9.5126 0 0 -17.8346zm5.55945 6.99685l2.39764 0c0.858661,0 1.45748,-0.15 1.79646,-0.444094 0.336614,-0.298819 0.501969,-0.727559 0.501969,-1.28386 0,-0.519685 -0.165354,-0.924803 -0.501969,-1.21654 -0.338976,-0.294094 -0.924803,-0.440551 -1.75984,-0.440551l-2.43425 0 0 3.38504zm0 7.00394l2.8122 0c0.950787,0 1.61811,-0.165354 2.00433,-0.501969 0.390945,-0.335433 0.585827,-0.787795 0.585827,-1.35709 0,-0.527953 -0.191339,-0.950787 -0.577559,-1.27087 -0.38622,-0.320079 -1.05827,-0.48189 -2.02559,-0.48189l-2.79921 0 0 3.61181zm22.1906 -14.0008l8.18858 0c1.60984,0 2.91496,0.219685 3.91063,0.655512 0.993307,0.440551 1.81535,1.06772 2.4626,1.88504 0.647244,0.822047 1.11732,1.77283 1.41142,2.86181 0.291732,1.0878 0.435827,2.23819 0.435827,3.45472 0,1.9063 -0.214961,3.38386 -0.651969,4.43504 -0.431102,1.05 -1.03346,1.92992 -1.80591,2.63622 -0.767717,0.709843 -1.59449,1.18228 -2.47913,1.42087 -1.20827,0.323622 -2.30433,0.485433 -3.28346,0.485433l-8.18858 0 0 -17.8346zm5.50984 4.04055l0 9.74055 1.35 0c1.15394,0 1.97244,-0.124016 2.45787,-0.381496 0.485433,-0.252756 0.866929,-0.701575 1.14567,-1.33701 0.275197,-0.635433 0.412205,-1.67008 0.412205,-3.09803 0,-1.88858 -0.308268,-3.18071 -0.922441,-3.87756 -0.618898,-0.698031 -1.64055,-1.04646 -3.06969,-1.04646l-1.37362 0zm13.7846 -4.04055l14.7661 0 0 3.80669 -9.24331 0 0 2.83819 8.5748 0 0 3.63543 -8.5748 0 0 3.51378 9.5126 0 0 4.04055 -15.0354 0 0 -17.8346zm17.0409 11.9339l5.24528 -0.328346c0.112205,0.851575 0.343701,1.5 0.693307,1.94882 0.564567,0.721654 1.37835,1.07953 2.43307,1.07953 0.785433,0 1.39016,-0.184252 1.8189,-0.553937 0.424016,-0.368504 0.635433,-0.796063 0.635433,-1.28268 0,-0.46063 -0.199606,-0.876378 -0.607087,-1.24134 -0.406299,-0.364961 -1.34528,-0.709843 -2.82283,-1.03465 -2.41654,-0.543307 -4.13976,-1.26142 -5.16969,-2.16378 -1.03819,-0.9 -1.55669,-2.04567 -1.55669,-3.44055 0,-0.918898 0.265748,-1.78583 0.796063,-2.59961 0.532677,-0.81378 1.32874,-1.45276 2.39528,-1.92283 1.0689,-0.465354 2.5311,-0.698031 4.38543,-0.698031 2.27953,0 4.02047,0.422835 5.21575,1.27087 1.19528,0.848031 1.9063,2.19567 2.13425,4.04409l-5.19449 0.302362c-0.137008,-0.800787 -0.427559,-1.38661 -0.871654,-1.75157 -0.440551,-0.360236 -1.05,-0.543307 -1.82717,-0.543307 -0.643701,0 -1.12441,0.133465 -1.44921,0.406299 -0.323622,0.270472 -0.486614,0.602362 -0.486614,0.993307 0,0.281102 0.133465,0.535039 0.399213,0.764173 0.262205,0.23622 0.876378,0.451181 1.85197,0.655512 2.40827,0.518504 4.13268,1.04646 5.17323,1.57677 1.04291,0.532677 1.80354,1.18937 2.27598,1.97717 0.473622,0.785433 0.714567,1.66535 0.714567,2.64213 0,1.13976 -0.320079,2.19567 -0.950787,3.15945 -0.63189,0.966142 -1.51535,1.69843 -2.65394,2.19567 -1.13268,0.498425 -2.56654,0.747638 -4.29213,0.747638 -3.03189,0 -5.13307,-0.581102 -6.3,-1.75157 -1.17047,-1.16811 -1.83071,-2.64921 -1.98543,-4.45157zm19.1717 -11.9339l5.52283 0 0 17.8346 -5.52283 0 0 -17.8346zm18.4453 11.3728l0 -3.70866 8.51102 0 0 7.60276c-1.62756,1.11024 -3.0685,1.86969 -4.32165,2.2689 -1.25551,0.401575 -2.74134,0.601181 -4.45984,0.601181 -2.1189,0 -3.84094,-0.361417 -5.17323,-1.08425 -1.33701,-0.716929 -2.37165,-1.79291 -3.10157,-3.22205 -0.735827,-1.42677 -1.10551,-3.06496 -1.10551,-4.91102 0,-1.94882 0.402756,-3.64252 1.20472,-5.08228 0.804331,-1.43858 1.98071,-2.52874 3.52795,-3.27756 1.20945,-0.576378 2.83819,-0.863386 4.87913,-0.863386 1.9689,0 3.44291,0.178346 4.42323,0.53622 0.975591,0.356693 1.78465,0.908268 2.43307,1.66063 0.643701,0.747638 1.12913,1.69843 1.45276,2.85236l-5.31496 0.947244c-0.218504,-0.673228 -0.594094,-1.18819 -1.11614,-1.54488 -0.519685,-0.356693 -1.18819,-0.53622 -1.99843,-0.53622 -1.20827,0 -2.16969,0.420472 -2.88898,1.25787 -0.719291,0.843307 -1.07953,2.1685 -1.07953,3.9874 0,1.92992 0.364961,3.30827 1.09252,4.13504 0.721654,0.826772 1.73504,1.24252 3.03543,1.24252 0.614173,0 1.20354,-0.092126 1.75984,-0.270472 0.559843,-0.178346 1.20472,-0.480709 1.92283,-0.909449l0 -1.68189 -3.68268 0zm11.8217 -11.3728l5.14843 0 6.71575 9.86575 0 -9.86575 5.19449 0 0 17.8346 -5.19449 0 -6.68268 -9.79252 0 9.79252 -5.1815 0 0 -17.8346z"/>
   <polygon id="_145698832" class="fil6" points="60.6697,37.3051 69.5339,37.3051 69.5339,74.7732 60.6697,74.7732 "/>
   <polygon id="_145698928" class="fil7" points="60.9803,16.9394 69.7276,16.9394 69.7276,25.1067 60.9803,25.1067 "/>
  </g>
 </g>
</svg>
